# xmcd CD database file
#
# Track frame offsets:
#	150
#	20970
#	51762
#	78900
#	97045
#	121330
#	142020
#	158062
#	182902
#	205460
#	237007
#	249222
#
# Disc length: 3748 seconds
#
# Revision: 0
# Processed by: cddbd v1.5.1PL2 Copyright (c) Steve Scherf et al.
# Submitted via: CDex 1.51
#
DISCID=a20ea20c
DTITLE=ENDLICHERI☆ENDLICHERI - Coward
DYEAR=1900
DGENRE=JPop
TTITLE0=ENDLICHERI☆ENDLICHERI
TTITLE1=故意
TTITLE2=雄
TTITLE3=闇喰いWind
TTITLE4=a happy love word
TTITLE5=16
TTITLE6=Chance Comes Knocking.
TTITLE7=御伽噺
TTITLE8=Six Pack
TTITLE9=ソメイヨシノ(album version)
TTITLE10=Coward
TTITLE11=これだけの日を跨いで来たのだから
EXTD=
EXTT0=
EXTT1=
EXTT2=
EXTT3=
EXTT4=
EXTT5=
EXTT6=
EXTT7=
EXTT8=
EXTT9=
EXTT10=
EXTT11=
PLAYORDER=
